<svg width="30" height="30" viewBox="0 0 30 30" fill="none" xmlns="http://www.w3.org/2000/svg">
<path d="M11.875 18.769C16.9585 18.769 21.25 19.6054 21.25 22.8359C21.25 26.0664 16.931 26.875 11.875 26.875C6.79151 26.875 2.5 26.0373 2.5 22.8081C2.5 19.5776 6.81778 18.769 11.875 18.769ZM23.7487 9.375C24.369 9.375 24.8724 9.88681 24.8724 10.5145V11.9848H26.3763C26.9953 11.9848 27.5 12.4966 27.5 13.1243C27.5 13.7521 26.9953 14.2639 26.3763 14.2639H24.8724V15.7355C24.8724 16.3632 24.369 16.875 23.7487 16.875C23.1297 16.875 22.625 16.3632 22.625 15.7355V14.2639H21.1237C20.5034 14.2639 20 13.7521 20 13.1243C20 12.4966 20.5034 11.9848 21.1237 11.9848H22.625V10.5145C22.625 9.88681 23.1297 9.375 23.7487 9.375ZM11.875 3.125C15.3182 3.125 18.0783 5.92079 18.0783 9.40855C18.0783 12.8963 15.3182 15.6921 11.875 15.6921C8.43179 15.6921 5.67171 12.8963 5.67171 9.40855C5.67171 5.92079 8.43179 3.125 11.875 3.125Z" fill="#EAAF03"/>
</svg>
