<svg width="30" height="30" viewBox="0 0 30 30" fill="none" xmlns="http://www.w3.org/2000/svg">
<path d="M10.3498 3.12586C11.1373 3.14981 11.8998 3.28731 12.6385 3.53856H12.7123C12.7623 3.56231 12.7998 3.58856 12.8248 3.61231C13.101 3.70106 13.3623 3.80106 13.6123 3.93856L14.0873 4.15106C14.2748 4.25106 14.4998 4.43731 14.6248 4.51356C14.7498 4.58731 14.8873 4.66356 14.9998 4.74981C16.3885 3.68856 18.0748 3.11356 19.8123 3.12586C20.601 3.12586 21.3885 3.23731 22.1373 3.48856C26.751 4.98856 28.4135 10.0511 27.0248 14.4761C26.2373 16.7373 24.9498 18.8011 23.2635 20.4873C20.8498 22.8248 18.201 24.8998 15.3498 26.6873L15.0373 26.8761L14.7123 26.6748C11.851 24.8998 9.18728 22.8248 6.75103 20.4748C5.07603 18.7886 3.78728 16.7373 2.98728 14.4761C1.57478 10.0511 3.23728 4.98856 7.90103 3.46231C8.26353 3.33731 8.63728 3.24981 9.01228 3.20106H9.16228C9.51353 3.14981 9.86228 3.12586 10.2123 3.12586H10.3498ZM21.4873 7.07606C20.9748 6.89981 20.4123 7.17606 20.2248 7.70106C20.0498 8.22606 20.3248 8.80106 20.8498 8.98731C21.651 9.28731 22.1873 10.0761 22.1873 10.9498V10.9886C22.1635 11.2748 22.2498 11.5511 22.4248 11.7636C22.5998 11.9761 22.8623 12.0998 23.1373 12.1261C23.6498 12.1123 24.0873 11.7011 24.1248 11.1748V11.0261C24.1623 9.27481 23.101 7.68856 21.4873 7.07606Z" fill="white"/>
</svg>
