<svg width="30" height="30" viewBox="0 0 30 30" fill="none" xmlns="http://www.w3.org/2000/svg">
<path d="M15.0001 2.49913C21.9126 2.49913 27.5001 8.10038 27.5001 14.9991C27.5001 21.9004 21.9126 27.4991 15.0001 27.4991C8.10012 27.4991 2.50012 21.9004 2.50012 14.9991C2.50012 8.10038 8.10012 2.49913 15.0001 2.49913ZM15.0001 18.6629C14.4001 18.6629 13.9126 19.1504 13.9126 19.7504C13.9126 20.3504 14.4001 20.8504 15.0126 20.8504C15.6126 20.8504 16.1001 20.3504 16.1001 19.7504C16.1001 19.1504 15.6126 18.6629 15.0001 18.6629ZM15.0001 9.16163C14.4001 9.16163 13.9001 9.66288 13.9001 10.2616V15.7866C13.9001 16.3879 14.4001 16.8741 15.0001 16.8741C15.6001 16.8741 16.0876 16.3879 16.0876 15.7866V10.2616C16.0876 9.66288 15.6001 9.16163 15.0001 9.16163Z" fill="white"/>
</svg>
