<svg width="48" height="48" viewBox="0 0 48 48" fill="none" xmlns="http://www.w3.org/2000/svg">
<path d="M26.5049 4C27 4 27.4158 4.42 27.4158 4.92V11.36C27.4158 15.02 30.4059 18.02 34.0297 18.04C35.5149 18.04 36.7228 18.06 37.6139 18.06C38.2277 18.06 39.2574 18.04 40.0891 18.04C40.604 18.04 41 18.44 41 18.94V35.02C41 39.98 37.0198 44 32.0891 44H16.3465C11.1782 44 7 39.78 7 34.58V13.02C7 8.06 11 4 15.9307 4H26.5049ZM21.1782 21.44C20.604 20.84 19.6733 20.84 19.099 21.44C18.5248 22.02 18.5248 22.96 19.099 23.54L21.5149 25.98L19.099 28.42C18.5248 29 18.5248 29.94 19.099 30.52C19.3762 30.82 19.7525 30.96 20.1287 30.96C20.505 30.96 20.901 30.82 21.1782 30.52L23.5941 28.08L26.0099 30.52C26.3069 30.82 26.6832 30.96 27.0594 30.96C27.4356 30.96 27.8119 30.82 28.1089 30.52C28.6832 29.94 28.6832 29 28.1089 28.42L25.6931 25.98L28.1089 23.54C28.6832 22.96 28.6832 22.02 28.1089 21.44C27.5347 20.84 26.5842 20.84 26.0099 21.44L23.5941 23.88L21.1782 21.44ZM30.2925 5.8124C30.2925 4.9504 31.3281 4.5224 31.9182 5.1444C34.0608 7.3924 37.8014 11.3224 39.8925 13.5184C40.4687 14.1244 40.0469 15.1304 39.2113 15.1324C37.5836 15.1384 35.6667 15.1324 34.2865 15.1184C32.0964 15.1184 30.2925 13.2964 30.2925 11.0844V5.8124Z" fill="white"/>
</svg>
