<svg width="37" height="37" viewBox="0 0 37 37" fill="none" xmlns="http://www.w3.org/2000/svg">
<path d="M16.6024 5.40224C18.1674 5.40224 19.6271 6.52953 20.154 8.3364C20.3475 9.09168 20.4261 9.84857 20.5016 10.5781L20.5724 11.2416C20.8429 13.4559 20.8429 24.3341 20.5724 26.5645L20.5016 27.2522C20.434 27.9462 20.3648 28.6645 20.165 29.431C19.6381 31.2331 18.2335 32.4022 16.6386 32.4022C16.5882 32.4022 16.5379 32.4022 16.4813 32.4006C15.6005 32.4006 14.6426 31.8595 14.0999 31.3877L8.81027 26.9768H6.09387C3.9972 26.9768 2.46206 25.4582 2.18365 23.1086C1.86278 20.759 1.9257 16.7282 2.18365 14.5928C2.48722 12.3688 4.09472 10.8277 6.09387 10.8277H8.81027L13.9993 6.48122C14.6253 5.9369 15.7294 5.39903 16.6024 5.40224ZM29.4011 5.73383C30.0271 5.28936 30.8874 5.45201 31.3168 6.08812C33.6699 9.55209 34.966 14.1047 34.966 18.9021C34.966 23.7027 33.6699 28.2537 31.3168 31.7176C31.0605 32.0961 30.6373 32.3232 30.1859 32.3232C29.906 32.3232 29.6354 32.2362 29.4026 32.0719C28.7798 31.6258 28.6256 30.7482 29.0566 30.1105C31.0919 27.1119 32.2134 23.131 32.2134 18.9021C32.2134 14.6748 31.0919 10.6939 29.0566 7.6953C28.6256 7.05919 28.7798 6.17991 29.4011 5.73383ZM24.6585 10.2898C25.286 9.84696 26.1433 10.0064 26.5758 10.6441C28.0952 12.8826 28.9336 15.8151 28.9336 18.9022C28.9336 21.9894 28.0952 24.9219 26.5758 27.1604C26.3179 27.5388 25.8963 27.7659 25.4449 27.7659C25.1649 27.7659 24.8928 27.6789 24.66 27.5147C24.0372 27.0686 23.883 26.1893 24.3156 25.5532C25.5188 23.7801 26.181 21.4177 26.181 18.9022C26.181 16.3852 25.5188 14.0243 24.3156 12.2513C23.883 11.6152 24.0372 10.7359 24.6585 10.2898Z" fill="white"/>
</svg>
