<svg width="49" height="49" viewBox="0 0 49 49" fill="none" xmlns="http://www.w3.org/2000/svg">
<path d="M13.4255 23.8375C13.6779 24.3055 14.158 24.5972 14.6802 24.5972H22.8111V40.6518C22.8111 41.4625 23.4538 42.1204 24.2456 42.1204C25.0375 42.1204 25.6801 41.4625 25.6801 40.6518V24.5972H33.811C34.3351 24.5972 34.8152 24.3055 35.0658 23.8375C35.3202 23.3695 35.3029 22.7977 35.0256 22.3454L25.4602 6.80576C25.1962 6.37889 24.7391 6.12042 24.2456 6.12042C23.7521 6.12042 23.295 6.37889 23.031 6.80576L13.4656 22.3454C13.3203 22.5843 13.2457 22.8565 13.2457 23.1286C13.2457 23.3714 13.3069 23.6162 13.4255 23.8375Z" fill="white"/>
</svg>
