<svg width="24" height="24" viewBox="0 0 24 24" fill="none" xmlns="http://www.w3.org/2000/svg">
<path d="M12.0001 1.99933C17.5301 1.99933 22.0001 6.48033 22.0001 11.9993C22.0001 17.5203 17.5301 21.9993 12.0001 21.9993C6.48012 21.9993 2.00012 17.5203 2.00012 11.9993C2.00012 6.48033 6.48012 1.99933 12.0001 1.99933ZM12.0001 14.9303C11.5201 14.9303 11.1301 15.3203 11.1301 15.8003C11.1301 16.2803 11.5201 16.6803 12.0101 16.6803C12.4901 16.6803 12.8801 16.2803 12.8801 15.8003C12.8801 15.3203 12.4901 14.9303 12.0001 14.9303ZM12.0001 7.32933C11.5201 7.32933 11.1201 7.73033 11.1201 8.20933V12.6293C11.1201 13.1103 11.5201 13.4993 12.0001 13.4993C12.4801 13.4993 12.8701 13.1103 12.8701 12.6293V8.20933C12.8701 7.73033 12.4801 7.32933 12.0001 7.32933Z" fill="#232323"/>
</svg>
