<svg width="45" height="37" viewBox="0 0 45 37" fill="none" xmlns="http://www.w3.org/2000/svg">
<path d="M42.4998 18.1479C43.3398 18.1479 44.0218 18.8167 44.0218 19.6423C44.0218 20.466 43.3398 21.1328 42.4998 21.1328H40.3758V28.252C40.3758 32.5627 36.8018 36.0654 32.4098 36.0654H29.2238C28.3818 36.0654 27.6998 35.3967 27.6998 34.571C27.6998 33.7473 28.3818 33.0785 29.2238 33.0785H32.4098C35.1238 33.0785 37.3318 30.9153 37.3318 28.252V21.1328H32.0858V23.1156C32.1058 25.5965 30.0758 27.6244 27.5458 27.648H16.4978C13.9698 27.6244 11.9398 25.5965 11.9598 23.1156V21.1328H6.71379V28.2598C6.71379 30.9134 8.91579 33.0726 11.6218 33.0766L14.8778 33.0785C15.7178 33.0785 16.3998 33.7473 16.3998 34.571C16.3978 35.3967 15.7178 36.0654 14.8758 36.0654L11.6178 36.0635C7.23579 36.0595 3.66779 32.5588 3.66779 28.2598V21.1328H1.54579C0.70579 21.1328 0.0217896 20.466 0.0217896 19.6423C0.0217896 18.8167 0.70579 18.1479 1.54579 18.1479H42.4998ZM27.5468 7.55075C28.7568 7.55075 29.9188 8.02732 30.7648 8.87652C31.6168 9.73356 32.0888 10.8848 32.0868 12.0831V14.5738C32.0768 14.866 31.8388 15.1033 31.5408 15.1112H12.5008C12.2048 15.1014 11.9668 14.8641 11.9606 14.5738V12.0831C11.9388 9.60216 13.9708 7.57624 16.4988 7.55075H27.5468ZM32.409 0.066018C36.803 0.066018 40.375 3.56872 40.375 7.87748V11.59C40.375 12.4137 39.695 13.0845 38.853 13.0845C38.013 13.0845 37.331 12.4137 37.331 11.59V7.87748C37.331 5.21613 35.123 3.05097 32.409 3.05097H29.223C28.383 3.05097 27.701 2.38416 27.701 1.56045C27.701 0.734788 28.383 0.066018 29.223 0.066018H32.409ZM14.8772 0.0654297C15.7172 0.0654297 16.3992 0.734199 16.3992 1.55986C16.3992 2.38357 15.7192 3.05234 14.8772 3.05234L11.6192 3.0543C8.91519 3.05822 6.71519 5.2175 6.71519 7.87101V11.5894C6.71519 12.4132 6.03119 13.0839 5.19119 13.0839C4.35119 13.0839 3.66919 12.4132 3.66919 11.5894V7.87101C3.66919 3.57206 7.23519 0.0713133 11.6172 0.0673909L14.8772 0.0654297Z" fill="url(#paint0_linear_28_166)"/>
<defs>
<linearGradient id="paint0_linear_28_166" x1="22.0218" y1="0.0654297" x2="22.0218" y2="36.0654" gradientUnits="userSpaceOnUse">
<stop stop-color="#D1D1D1"/>
<stop offset="1" stop-color="#C2C2C2"/>
</linearGradient>
</defs>
</svg>
