<svg width="48" height="48" viewBox="0 0 48 48" fill="none" xmlns="http://www.w3.org/2000/svg">
<path d="M22.6816 4.2074C23.4667 3.93087 24.3322 3.93087 25.1374 4.2074L38.4029 8.65734C39.8925 9.14764 40.8989 10.5224 40.8989 12.0522L40.9998 25.3275C41.0197 29.3479 39.5503 33.2507 36.8529 36.3121C35.625 37.7242 34.0347 38.9205 32.0218 39.9992L24.8757 43.8235C24.6543 43.9412 24.4127 44 24.1712 44C23.9296 44 23.6679 43.9412 23.4465 43.8235L16.2401 40.0972C14.207 39.0382 12.6168 37.8615 11.3687 36.469C8.63109 33.4488 7.10123 29.546 7.0811 25.5256L7.00029 12.2463C6.98045 10.7166 7.98694 9.34572 9.4564 8.83385L22.6816 4.2074ZM21.2725 18.7183C20.6888 18.1495 19.7427 18.1495 19.1388 18.7183C18.555 19.3086 18.555 20.2303 19.1388 20.7991L21.8563 23.4447L19.1388 26.0943C18.555 26.6631 18.555 27.6044 19.1388 28.1732C19.4407 28.4674 19.8232 28.6027 20.2056 28.6027C20.6082 28.6027 20.9907 28.4674 21.2725 28.1732L23.99 25.5256L26.7075 28.1732C27.0095 28.4674 27.3919 28.6027 27.7744 28.6027C28.1569 28.6027 28.5595 28.4674 28.8413 28.1732C29.425 27.6044 29.425 26.6631 28.8413 26.0943L26.1238 23.4447L28.8413 20.7991C29.425 20.2303 29.425 19.3086 28.8413 18.7183C28.2575 18.1495 27.2913 18.1495 26.7075 18.7183L23.99 21.3678L21.2725 18.7183Z" fill="#EA4335"/>
</svg>
