<svg width="48" height="48" viewBox="0 0 48 48" fill="none" xmlns="http://www.w3.org/2000/svg">
<path d="M30.8994 7.5606C30.8194 8.0606 30.7794 8.5606 30.7794 9.0606C30.7794 13.5606 34.4194 17.1986 38.8994 17.1986C39.3994 17.1986 39.8794 17.1406 40.3794 17.0606V33.1986C40.3794 39.9806 36.3794 44.0006 29.5794 44.0006H14.8014C7.99939 44.0006 3.99939 39.9806 3.99939 33.1986V18.4006C3.99939 11.6006 7.99939 7.5606 14.8014 7.5606H30.8994ZM31.3014 19.7206C30.7594 19.6606 30.2214 19.9006 29.8994 20.3406L25.0614 26.6006L19.5194 22.2406C19.1794 21.9806 18.7794 21.8786 18.3794 21.9206C17.9814 21.9806 17.6214 22.1986 17.3794 22.5186L11.4614 30.2206L11.3394 30.4006C10.9994 31.0386 11.1594 31.8586 11.7594 32.3006C12.0394 32.4806 12.3394 32.6006 12.6794 32.6006C13.1414 32.6206 13.5794 32.3786 13.8594 32.0006L18.8794 25.5386L24.5794 29.8206L24.7594 29.9386C25.3994 30.2786 26.1994 30.1206 26.6594 29.5186L32.4394 22.0606L32.3594 22.1006C32.6794 21.6606 32.7394 21.1006 32.5194 20.6006C32.3014 20.1006 31.8194 19.7606 31.3014 19.7206ZM39.1796 4C41.8396 4 43.9996 6.16 43.9996 8.82C43.9996 11.48 41.8396 13.64 39.1796 13.64C36.5196 13.64 34.3596 11.48 34.3596 8.82C34.3596 6.16 36.5196 4 39.1796 4Z" fill="url(#paint0_linear_8_619)"/>
<defs>
<linearGradient id="paint0_linear_8_619" x1="44" y1="4" x2="4" y2="44" gradientUnits="userSpaceOnUse">
<stop stop-color="#1B59C0"/>
<stop offset="1" stop-color="#72A7FF"/>
</linearGradient>
</defs>
</svg>
