<svg width="48" height="48" viewBox="0 0 48 48" fill="none" xmlns="http://www.w3.org/2000/svg">
<path d="M33.3388 4.00079C40.1408 4.00079 43.9808 7.85879 44.0008 14.6608V33.3408C44.0008 40.1408 40.1408 44.0008 33.3388 44.0008H14.6608C7.85879 44.0008 4.00079 40.1408 4.00079 33.3408V14.6608C4.00079 7.85879 7.85879 4.00079 14.6608 4.00079H33.3388ZM25.0008 12.2608C24.4388 11.9208 23.7588 11.9208 23.2208 12.2608C22.6788 12.5988 22.3808 13.2208 22.4388 13.8408V34.2208C22.5408 35.0808 23.2588 35.7208 24.0988 35.7208C24.9608 35.7208 25.6788 35.0808 25.7588 34.2208V13.8408C25.8388 13.2208 25.5408 12.5988 25.0008 12.2608ZM15.6608 18.8208C15.1208 18.4808 14.4388 18.4808 13.9008 18.8208C13.3588 19.1608 13.0608 19.7788 13.1208 20.4008V34.2208C13.1988 35.0808 13.9188 35.7208 14.7788 35.7208C15.6408 35.7208 16.3588 35.0808 16.4388 34.2208V20.4008C16.5008 19.7788 16.1988 19.1608 15.6608 18.8208ZM34.1788 26.0808C33.6408 25.7408 32.9608 25.7408 32.4008 26.0808C31.8588 26.4208 31.5608 27.0188 31.6408 27.6608V34.2208C31.7208 35.0808 32.4388 35.7208 33.3008 35.7208C34.1408 35.7208 34.8588 35.0808 34.9608 34.2208V27.6608C35.0188 27.0188 34.7208 26.4208 34.1788 26.0808Z" fill="url(#paint0_linear_10_80)"/>
<defs>
<linearGradient id="paint0_linear_10_80" x1="43" y1="4" x2="3" y2="46.5" gradientUnits="userSpaceOnUse">
<stop stop-color="#CA03EA"/>
<stop offset="1" stop-color="#8404D2"/>
</linearGradient>
</defs>
</svg>
