<svg width="48" height="48" viewBox="0 0 48 48" fill="none" xmlns="http://www.w3.org/2000/svg">
<path d="M16.5596 5.00139C17.8196 5.03971 19.0396 5.25971 20.2216 5.66171H20.3396C20.4196 5.69971 20.4796 5.74171 20.5196 5.77971C20.9616 5.92171 21.3796 6.08171 21.7796 6.30171L22.5396 6.64171C22.8396 6.80171 23.1996 7.09971 23.3996 7.22171C23.5996 7.33971 23.8196 7.46171 23.9996 7.59971C26.2216 5.90171 28.9196 4.98171 31.6996 5.00139C32.9616 5.00139 34.2216 5.17971 35.4196 5.58171C42.8016 7.98171 45.4616 16.0817 43.2396 23.1617C41.9796 26.7797 39.9196 30.0817 37.2216 32.7797C33.3596 36.5197 29.1216 39.8397 24.5596 42.6997L24.0596 43.0017L23.5396 42.6797C18.9616 39.8397 14.6996 36.5197 10.8016 32.7597C8.12161 30.0617 6.05961 26.7797 4.77961 23.1617C2.51961 16.0817 5.17961 7.98171 12.6416 5.53971C13.2216 5.33971 13.8196 5.19971 14.4196 5.12171H14.6596C15.2216 5.03971 15.7796 5.00139 16.3396 5.00139H16.5596ZM34.3796 11.3217C33.5596 11.0397 32.6596 11.4817 32.3596 12.3217C32.0796 13.1617 32.5196 14.0817 33.3596 14.3797C34.6416 14.8597 35.4996 16.1217 35.4996 17.5197V17.5817C35.4616 18.0397 35.5996 18.4817 35.8796 18.8217C36.1596 19.1617 36.5796 19.3597 37.0196 19.4017C37.8396 19.3797 38.5396 18.7217 38.5996 17.8797V17.6417C38.6596 14.8397 36.9616 12.3017 34.3796 11.3217Z" fill="#EA4335"/>
</svg>
