<svg width="25" height="25" viewBox="0 0 25 25" fill="none" xmlns="http://www.w3.org/2000/svg">
<path fill-rule="evenodd" clip-rule="evenodd" d="M12.1622 1.86237C15.0352 1.86237 17.7352 2.97937 19.7632 5.00837C23.9552 9.20037 23.9552 16.0204 19.7632 20.2124C17.7082 22.2684 14.9412 23.3564 12.1382 23.3564C10.6102 23.3564 9.07219 23.0334 7.63319 22.3674C7.20919 22.1974 6.81219 22.0374 6.52719 22.0374C6.19919 22.0394 5.75819 22.1914 5.33219 22.3384C4.45819 22.6384 3.37019 23.0124 2.56519 22.2104C1.76319 21.4074 2.13319 20.3224 2.43119 19.4494C2.57819 19.0194 2.72919 18.5754 2.72919 18.2394C2.72919 17.9634 2.59619 17.6114 2.39219 17.1044C0.519191 13.0594 1.38519 8.18437 4.56219 5.00937C6.59019 2.98037 9.28919 1.86237 12.1622 1.86237ZM12.1632 3.36237C9.69019 3.36237 7.36719 4.32437 5.62219 6.07037C2.88819 8.80237 2.14419 12.9974 3.76919 16.5104C4.00319 17.0894 4.22919 17.6534 4.22919 18.2394C4.22919 18.8244 4.02819 19.4134 3.85119 19.9334C3.70519 20.3614 3.48419 21.0074 3.62619 21.1494C3.76519 21.2934 4.41519 21.0664 4.84419 20.9194C5.35919 20.7434 5.94319 20.5414 6.52219 20.5374C7.10219 20.5374 7.64919 20.7574 8.22819 20.9904C11.7752 22.6304 15.9702 21.8844 18.7032 19.1524C22.3092 15.5444 22.3092 9.67537 18.7032 6.06937C16.9572 4.32337 14.6352 3.36237 12.1632 3.36237ZM16.1101 12.0251C16.6621 12.0251 17.1101 12.4721 17.1101 13.0251C17.1101 13.5781 16.6621 14.0251 16.1101 14.0251C15.5581 14.0251 15.1061 13.5781 15.1061 13.0251C15.1061 12.4721 15.5491 12.0251 16.1011 12.0251H16.1101ZM12.1013 12.0251C12.6533 12.0251 13.1013 12.4721 13.1013 13.0251C13.1013 13.5781 12.6533 14.0251 12.1013 14.0251C11.5493 14.0251 11.0973 13.5781 11.0973 13.0251C11.0973 12.4721 11.5393 12.0251 12.0923 12.0251H12.1013ZM8.09209 12.0251C8.64409 12.0251 9.09209 12.4721 9.09209 13.0251C9.09209 13.5781 8.64409 14.0251 8.09209 14.0251C7.54009 14.0251 7.08809 13.5781 7.08809 13.0251C7.08809 12.4721 7.53109 12.0251 8.08309 12.0251H8.09209Z" fill="black"/>
</svg>
