<svg width="26" height="26" viewBox="0 0 26 26" fill="none" xmlns="http://www.w3.org/2000/svg">
<path fill-rule="evenodd" clip-rule="evenodd" d="M13.3204 2.87973C19.0641 2.87973 23.737 7.55265 23.737 13.2964C23.737 19.0401 19.0641 23.7131 13.3204 23.7131C7.57661 23.7131 2.90369 19.0401 2.90369 13.2964C2.90369 7.55265 7.57661 2.87973 13.3204 2.87973ZM13.3204 4.44223C8.43807 4.44223 4.46619 8.41411 4.46619 13.2964C4.46619 18.1787 8.43807 22.1506 13.3204 22.1506C18.2026 22.1506 22.1745 18.1787 22.1745 13.2964C22.1745 8.41411 18.2026 4.44223 13.3204 4.44223ZM13.3244 16.2088C13.9005 16.2088 14.3661 16.6744 14.3661 17.2505C14.3661 17.8265 13.9005 18.2921 13.3244 18.2921C12.7484 18.2921 12.2775 17.8265 12.2775 17.2505C12.2775 16.6744 12.739 16.2088 13.314 16.2088H13.3244ZM13.3142 8.56098C13.7455 8.56098 14.0955 8.91098 14.0955 9.34223V13.9454C14.0955 14.3766 13.7455 14.7266 13.3142 14.7266C12.883 14.7266 12.533 14.3766 12.533 13.9454V9.34223C12.533 8.91098 12.883 8.56098 13.3142 8.56098Z" fill="#6C63FF"/>
</svg>
