<svg width="49" height="49" viewBox="0 0 49 49" fill="none" xmlns="http://www.w3.org/2000/svg">
<path d="M43.0957 5.251C42.0953 4.22423 40.6147 3.84171 39.2341 4.24437L7.04097 13.6061C5.58437 14.0108 4.55195 15.1724 4.27384 16.6481C3.98972 18.15 4.98213 20.0566 6.27866 20.8539L16.3448 27.0407C17.3772 27.6748 18.7097 27.5158 19.5641 26.6541L31.0908 15.0556C31.6711 14.4517 32.6314 14.4517 33.2117 15.0556C33.7919 15.6395 33.7919 16.5857 33.2117 17.1897L21.665 28.7902C20.8086 29.6499 20.6485 30.9887 21.2788 32.0275L27.4293 42.1946C28.1496 43.4025 29.3901 44.087 30.7507 44.087C30.9107 44.087 31.0908 44.087 31.2509 44.0669C32.8115 43.8656 34.052 42.7985 34.5122 41.2886L44.0561 9.13662C44.4763 7.76759 44.0961 6.27777 43.0957 5.251Z" fill="white"/>
</svg>
