<svg width="21" height="20" viewBox="0 0 21 20" fill="none" xmlns="http://www.w3.org/2000/svg">
<path fill-rule="evenodd" clip-rule="evenodd" d="M10.2395 2.1875C10.1447 2.1875 9.91141 2.21354 9.78745 2.46146L7.88537 6.26458C7.58433 6.86562 7.00412 7.28333 6.33329 7.37917L2.07495 7.99271C1.7937 8.03333 1.69787 8.24167 1.6687 8.32917C1.64266 8.41354 1.601 8.62813 1.79474 8.81354L4.87391 11.7719C5.36454 12.2438 5.58745 12.924 5.47079 13.5896L4.74579 17.7667C4.70099 18.0281 4.86454 18.1802 4.93745 18.2323C5.01454 18.2906 5.22079 18.4062 5.47599 18.2729L9.28329 16.299C9.88329 15.9896 10.5979 15.9896 11.1958 16.299L15.002 18.2719C15.2583 18.4042 15.4645 18.2885 15.5427 18.2323C15.6156 18.1802 15.7791 18.0281 15.7343 17.7667L15.0072 13.5896C14.8906 12.924 15.1135 12.2438 15.6041 11.7719L18.6833 8.81354C18.8781 8.62813 18.8364 8.4125 18.8093 8.32917C18.7812 8.24167 18.6854 8.03333 18.4041 7.99271L14.1458 7.37917C13.476 7.28333 12.8958 6.86563 12.5947 6.26354L10.6906 2.46146C10.5677 2.21354 10.3343 2.1875 10.2395 2.1875ZM5.23641 19.8958C4.8062 19.8958 4.37912 19.7604 4.01349 19.4938C3.38225 19.0313 3.07287 18.2677 3.20724 17.499L3.93225 13.3219C3.95933 13.1667 3.9062 13.0094 3.79162 12.899L0.712453 9.94063C0.145787 9.39792 -0.0573384 8.59583 0.182245 7.85104C0.423912 7.09792 1.06349 6.55938 1.85204 6.44688L6.11037 5.83333C6.27495 5.81042 6.41662 5.70938 6.48745 5.56563L8.39058 1.76146C8.74162 1.06042 9.44995 0.625 10.2395 0.625C11.0291 0.625 11.7375 1.06042 12.0885 1.76146L13.9927 5.56458C14.0645 5.70938 14.2052 5.81042 14.3687 5.83333L18.627 6.44688C19.4156 6.55938 20.0552 7.09792 20.2968 7.85104C20.5364 8.59583 20.3322 9.39792 19.7656 9.94063L16.6864 12.899C16.5718 13.0094 16.5197 13.1667 16.5468 13.3208L17.2729 17.499C17.4062 18.2688 17.0968 19.0323 16.4645 19.4938C15.8239 19.9635 14.9895 20.0271 14.2822 19.6583L10.477 17.6865C10.3281 17.6094 10.15 17.6094 10.001 17.6865L6.19579 19.6594C5.89162 19.8177 5.56349 19.8958 5.23641 19.8958Z" fill="#FFC331"/>
</svg>
