<svg width="50" height="50" viewBox="0 0 50 50" fill="none" xmlns="http://www.w3.org/2000/svg">
<g clip-path="url(#clip0_66_1075)">
<path d="M30.6429 22.9245C34.6332 25.2616 37.4661 28.3209 38.2465 33.1795C39.3036 39.7613 34.4915 46.6017 27.8275 47.3841C22.7351 47.982 18.2039 46.7785 15.1951 42.3617C11.2404 36.5566 12.1577 27.4914 19.8448 23.4266C20.0675 23.3088 20.2673 23.1477 20.8447 22.9514C21.9724 22.7411 22.7331 22.5862 23.7198 22.424C26.1781 22.586 28.4105 22.7552 30.6429 22.9245ZM16.1853 30.6369C13.6472 35.3623 15.7868 40.428 19.8353 43.4261C23.7696 46.3396 28.8689 45.9249 32.7177 42.5135C36.1769 39.4475 36.9809 33.9852 34.6124 29.642C30.7137 22.4929 21.0268 22.8315 16.1853 30.6369Z" fill="#FFBB58"/>
<path d="M30.683 22.7361C28.4106 22.7553 26.1782 22.586 23.7324 22.2353C24.1928 20.2844 24.8667 18.5151 25.5405 16.7457C26.7443 14.8359 28.0054 12.9593 29.1359 11.007C30.3175 8.96654 31.3735 6.8533 32.4992 4.74396C35.1141 4.74396 37.6902 4.74396 40.5257 4.74396C37.2042 10.7765 33.9636 16.6621 30.683 22.7361Z" fill="#FF754C"/>
<path d="M20.8156 22.4452C17.4762 16.6718 14.1369 10.8984 10.5493 4.69597C13.339 4.69597 15.5669 4.62586 17.7843 4.74773C18.3061 4.77641 18.9752 5.34703 19.2651 5.8484C21.0509 8.93636 22.7475 12.0759 24.4004 15.5422C23.1566 18.0724 21.9861 20.2588 20.8156 22.4452Z" fill="#E64A19"/>
<path d="M20.8179 22.5457C21.9859 20.2588 23.1565 18.0724 24.4194 15.7292C24.7566 15.9141 25.0012 16.2558 25.3931 16.6716C24.8664 18.5151 24.1925 20.2844 23.5062 22.2425C22.733 22.5862 21.9723 22.7411 21.0099 22.8714C20.8082 22.8467 20.8203 22.6461 20.8179 22.5457Z" fill="#CB3E19"/>
<path d="M16.2718 30.4585C21.0266 22.8315 30.7135 22.4929 34.6121 29.642C36.9807 33.9852 36.1766 39.4475 32.7175 42.5135C28.8686 45.9249 23.7694 46.3396 19.8351 43.4261C15.7865 40.428 13.647 35.3623 16.2718 30.4585ZM22.5455 38.9152C23.5194 41.2724 25.5327 39.6816 27.0294 40.0355C27.438 40.1322 28.0028 39.5691 28.4959 39.3088C28.1821 38.871 27.9364 38.3557 27.5423 38.0094C26.1997 36.8295 26.1465 32.9926 27.4422 31.8146C27.8659 31.4294 28.1039 30.8398 28.4268 30.3437C27.9048 30.1282 27.3967 29.7839 26.8578 29.7259C25.9205 29.625 24.9515 29.6098 24.0208 29.7388C23.5121 29.8092 23.0547 30.2491 22.5741 30.5223C22.8194 30.9228 22.9879 31.4085 23.3225 31.7096C25.2517 33.4461 24.9219 37.088 22.5455 38.9152Z" fill="#FFE082"/>
<path d="M22.6085 38.7226C24.922 37.088 25.2518 33.4461 23.3226 31.7097C22.988 31.4085 22.8195 30.9228 22.5742 30.5223C23.0548 30.2491 23.5122 29.8092 24.0209 29.7388C24.9516 29.6098 25.9206 29.625 26.8579 29.7259C27.3968 29.784 27.9049 30.1282 28.4269 30.3437C28.104 30.8398 27.866 31.4294 27.4423 31.8147C26.1466 32.9926 26.1998 36.8295 27.5424 38.0094C27.9365 38.3557 28.1822 38.871 28.496 39.3088C28.0029 39.5691 27.4381 40.1322 27.0295 40.0356C25.5328 39.6816 23.5195 41.2725 22.6085 38.7226Z" fill="#FFBB58"/>
</g>
<defs>
<clipPath id="clip0_66_1075">
<rect width="50" height="50" fill="white"/>
</clipPath>
</defs>
</svg>
