<svg width="25" height="25" viewBox="0 0 25 25" fill="none" xmlns="http://www.w3.org/2000/svg">
<path fill-rule="evenodd" clip-rule="evenodd" d="M12.2379 1.04199C15.2306 1.04199 18.0431 2.20553 20.1556 4.31908C24.5223 8.68574 24.5223 15.7899 20.1556 20.1566C18.015 22.2982 15.1327 23.4316 12.2129 23.4316C10.6212 23.4316 9.01916 23.0951 7.52021 22.4014C7.07854 22.2243 6.665 22.0576 6.36812 22.0576C6.02646 22.0597 5.56708 22.218 5.12333 22.3712C4.21291 22.6837 3.07958 23.0732 2.24104 22.2378C1.40562 21.4014 1.79104 20.2712 2.10146 19.3618C2.25458 18.9139 2.41187 18.4514 2.41187 18.1014C2.41187 17.8139 2.27333 17.4472 2.06083 16.9191C0.10979 12.7055 1.01187 7.62741 4.32125 4.32012C6.43375 2.20658 9.24521 1.04199 12.2379 1.04199ZM12.239 2.60449C9.66291 2.60449 7.24312 3.60658 5.42541 5.42533C2.5775 8.27116 1.8025 12.6409 3.49521 16.3003C3.73896 16.9034 3.97437 17.491 3.97437 18.1014C3.97437 18.7107 3.765 19.3243 3.58062 19.866C3.42854 20.3118 3.19833 20.9847 3.34625 21.1326C3.49104 21.2826 4.16812 21.0462 4.615 20.893C5.15146 20.7097 5.75979 20.4993 6.36291 20.4951C6.96708 20.4951 7.53687 20.7243 8.14 20.967C11.8348 22.6753 16.2046 21.8982 19.0515 19.0524C22.8077 15.2941 22.8077 9.18053 19.0515 5.42428C17.2327 3.60553 14.814 2.60449 12.239 2.60449ZM16.3503 11.6281C16.9253 11.6281 17.392 12.0938 17.392 12.6698C17.392 13.2458 16.9253 13.7115 16.3503 13.7115C15.7753 13.7115 15.3045 13.2458 15.3045 12.6698C15.3045 12.0938 15.7659 11.6281 16.3409 11.6281H16.3503ZM12.1745 11.6281C12.7495 11.6281 13.2161 12.0938 13.2161 12.6698C13.2161 13.2458 12.7495 13.7115 12.1745 13.7115C11.5995 13.7115 11.1286 13.2458 11.1286 12.6698C11.1286 12.0938 11.5891 11.6281 12.1651 11.6281H12.1745ZM7.99823 11.6281C8.57323 11.6281 9.03989 12.0938 9.03989 12.6698C9.03989 13.2458 8.57323 13.7115 7.99823 13.7115C7.42323 13.7115 6.95239 13.2458 6.95239 12.6698C6.95239 12.0938 7.41385 11.6281 7.98885 11.6281H7.99823Z" fill="black"/>
</svg>
