<svg width="50" height="50" viewBox="0 0 50 50" fill="none" xmlns="http://www.w3.org/2000/svg">
<g clip-path="url(#clip0_72_753)">
<path d="M30.6326 22.9381C38.1106 27.4093 39.5303 32.529 37.3474 39.2838C35.0444 46.4101 29.743 48.2455 22.5925 47.299C17.4812 46.6223 12.826 40.9357 12.902 35.4032C12.9809 29.6647 15.298 25.8008 20.4166 23.062C20.6133 22.8869 20.8196 22.8317 21.0149 22.8576C21.9521 22.7496 22.694 22.6157 23.6643 22.4617C26.1394 22.6071 28.386 22.7726 30.6326 22.9381ZM26.5882 24.618C18.8138 24.1201 13.0966 31.181 15.6101 38.1762C17.3682 43.0689 22.1668 46.0155 27.017 45.1805C32.3076 44.2697 35.884 40.1294 35.8925 34.9058C35.901 29.6614 32.5581 25.8295 26.5882 24.618Z" fill="#AF8A77"/>
<path d="M30.674 22.7464C28.386 22.7726 26.1394 22.6071 23.6827 22.2662C24.1603 20.3095 24.8479 18.5282 25.5355 16.7469C27.4304 13.4715 29.5063 10.2835 31.1462 6.88508C32.008 5.09903 32.9875 4.49469 34.8499 4.65632C36.539 4.8029 38.2508 4.68732 40.3685 4.68732C37.0221 10.8814 33.8687 16.718 30.674 22.7464Z" fill="#FF754C"/>
<path d="M20.8196 22.8317C20.8196 22.8317 20.6133 22.8869 20.5075 22.901C17.9162 18.2883 15.4259 13.664 12.9485 9.03273C12.2427 7.71331 11.5745 6.37373 10.7075 4.69084C13.2534 4.69084 15.4138 4.49939 17.5089 4.78543C18.3427 4.89925 19.2503 5.94114 19.7472 6.78306C21.3842 9.55655 22.8488 12.4318 24.3341 15.5663C23.1323 18.1869 21.976 20.5093 20.8196 22.8317Z" fill="#E64A19"/>
<path d="M21.0149 22.8576C21.9759 20.5093 23.1323 18.1869 24.4134 15.7341C24.7747 15.9365 25.0113 16.2695 25.3917 16.6746C24.8479 18.5282 24.1603 20.3095 23.4542 22.2863C22.694 22.6157 21.9521 22.7496 21.0149 22.8576Z" fill="#CC3F19"/>
<path d="M26.8003 24.6723C32.5581 25.8295 35.901 29.6614 35.8924 34.9058C35.884 40.1294 32.3075 44.2697 27.017 45.1805C22.1668 46.0155 17.3682 43.0689 15.6101 38.1762C13.0966 31.181 18.8138 24.1201 26.8003 24.6723ZM24.748 40.1018C26.9098 40.0881 29.0731 40.1122 31.2322 40.0291C31.6697 40.0123 32.2904 39.683 32.4557 39.326C32.5804 39.0566 32.1998 38.4326 31.8951 38.1052C30.2935 36.3842 30.2416 33.3629 31.7984 31.7466C32.1203 31.4124 32.5705 30.8755 32.485 30.5621C32.3896 30.2126 31.7538 29.7868 31.3475 29.7807C27.4578 29.7231 23.5652 29.682 19.6775 29.7859C18.4306 29.8192 17.9651 30.5244 19.017 31.6406C20.8348 33.5695 20.8401 36.2738 19.1323 38.1146C18.8306 38.4399 18.4643 39.075 18.5935 39.3398C18.7674 39.6963 19.3822 40.0025 19.8273 40.0316C21.2918 40.1276 22.7652 40.0888 24.748 40.1018Z" fill="#CDB0A0"/>
<path d="M24.4916 40.1018C22.7652 40.0888 21.2919 40.1276 19.8273 40.0316C19.3822 40.0025 18.7674 39.6963 18.5935 39.3398C18.4643 39.0749 18.8306 38.4399 19.1324 38.1146C20.8401 36.2738 20.8348 33.5695 19.017 31.6406C17.9652 30.5244 18.4307 29.8192 19.6775 29.7859C23.5653 29.682 27.4579 29.7231 31.3475 29.7807C31.7538 29.7868 32.3896 30.2126 32.485 30.5621C32.5706 30.8755 32.1204 31.4124 31.7985 31.7466C30.2417 33.3629 30.2936 36.3842 31.8951 38.1052C32.1998 38.4326 32.5804 39.0566 32.4557 39.326C32.2905 39.683 31.6697 40.0123 31.2322 40.0291C29.0731 40.1121 26.9098 40.0881 24.4916 40.1018ZM23.6326 37.7631C23.8544 36.0698 24.1093 34.3793 24.2515 32.6794C24.2672 32.4906 23.6586 32.1306 23.3044 32.0755C23.0988 32.0435 22.5966 32.4824 22.6145 32.6734C22.773 34.3738 23.0179 36.0661 23.6326 37.7631ZM28.6316 33.7854C28.2782 33.2005 27.9248 32.6155 27.5714 32.0306C27.2394 32.6374 26.5876 33.2734 26.6398 33.845C26.7604 35.167 27.2221 36.4579 27.5455 37.7614C27.9107 36.5832 28.2758 35.405 28.6316 33.7854Z" fill="#AF8A77"/>
<path d="M23.435 37.762C23.018 36.0661 22.7731 34.3738 22.6145 32.6734C22.5967 32.4824 23.0988 32.0435 23.3044 32.0755C23.6586 32.1306 24.2673 32.4906 24.2515 32.6794C24.1093 34.3793 23.8544 36.0698 23.435 37.762Z" fill="#CEB1A1"/>
<path d="M28.6363 34.0061C28.2758 35.405 27.9107 36.5832 27.5456 37.7614C27.2222 36.4579 26.7605 35.167 26.6398 33.8451C26.5876 33.2734 27.2394 32.6374 27.5715 32.0306C27.9248 32.6156 28.2782 33.2005 28.6363 34.0061Z" fill="#CEB1A1"/>
</g>
<defs>
<clipPath id="clip0_72_753">
<rect width="50" height="50" fill="white"/>
</clipPath>
</defs>
</svg>
