<svg width="50" height="50" viewBox="0 0 50 50" fill="none" xmlns="http://www.w3.org/2000/svg">
<g clip-path="url(#clip0_72_732)">
<path d="M30.2085 22.8304C33.6179 24.6274 36.4244 26.9207 37.5651 30.8566C40.1846 39.8952 33.7847 47.426 25.637 47.5547C15.8253 47.7096 9.65962 37.2498 14.5596 28.5576C15.7729 26.4054 18.3051 24.9967 20.4249 23.0726C20.6188 22.8989 20.8259 22.8306 21.0187 22.865C21.8033 22.7335 22.3951 22.5676 23.1528 22.466C25.6153 22.6303 27.9119 22.7303 30.2085 22.8304ZM27.5205 24.6011C26.7434 24.5614 25.9657 24.4776 25.1894 24.4893C21.0533 24.5513 17.2816 27.1565 15.7914 31.1177C14.2396 35.2425 15.1015 38.987 18.0452 42.1868C20.8306 45.2145 25.4844 46.1548 29.3027 44.6411C33.4804 42.9848 36.0248 39.0663 35.9327 34.4305C35.844 29.9622 32.8872 26.3669 27.5205 24.6011Z" fill="#9FA8DA"/>
<path d="M30.2813 22.6682C27.9119 22.7304 25.6154 22.6303 23.2134 22.3029C23.9183 20.2989 24.7286 18.5222 25.5389 16.7456C27.428 13.4789 29.4984 10.2996 31.1318 6.90973C31.9857 5.13748 32.9512 4.50859 34.8075 4.65841C36.5038 4.79532 38.2198 4.68745 40.4927 4.68745C36.9694 10.8795 33.6618 16.6928 30.2813 22.6682Z" fill="#FF754C"/>
<path d="M20.826 22.8306C20.826 22.8306 20.619 22.8989 20.5102 22.9069C17.9159 18.2879 15.4254 13.6635 12.9479 9.03213C12.242 7.71263 11.5739 6.37293 10.7073 4.69069C13.2529 4.69069 15.4135 4.49917 17.5088 4.78532C18.3424 4.89917 19.2495 5.94182 19.7467 6.7839C21.384 9.55733 22.8491 12.4324 24.3254 15.5565C23.1222 18.1732 21.9741 20.5019 20.826 22.8306Z" fill="#E64A19"/>
<path d="M21.0188 22.865C21.9741 20.5019 23.1222 18.1732 24.4051 15.7242C24.7768 15.9366 25.0137 16.2694 25.3947 16.6739C24.7286 18.5222 23.9183 20.2989 23.0475 22.2386C22.3952 22.5676 21.8034 22.7335 21.0188 22.865Z" fill="#CB3F19"/>
<path d="M27.7304 24.6565C32.8873 26.3669 35.8441 29.9622 35.9328 34.4305C36.0249 39.0663 33.4805 42.9848 29.3028 44.6411C25.4845 46.1548 20.8307 45.2145 18.0453 42.1868C15.1016 38.987 14.2397 35.2425 15.7915 31.1177C17.2817 27.1565 21.0534 24.5513 25.1895 24.4893C25.9658 24.4776 26.7435 24.5614 27.7304 24.6565ZM20.6917 30.09C20.8031 30.6011 20.7408 31.2939 21.0544 31.5933C22.9029 33.3585 22.9639 36.3959 21.1434 38.1348C20.8286 38.4355 20.4638 39.0723 20.5864 39.3453C20.745 39.6985 21.3645 40.0326 21.795 40.0449C24.2142 40.114 26.6376 40.1271 29.0563 40.0523C29.5618 40.0367 30.0534 39.5714 30.5514 39.3133C30.239 38.8709 29.9929 38.3561 29.6023 37.9992C28.2606 36.7731 28.2553 33.0194 29.5948 31.796C29.986 31.4386 30.2368 30.9275 30.552 30.4868C29.9702 30.2234 29.3912 29.7419 28.806 29.7342C26.2182 29.7003 23.6286 29.8026 20.6917 30.09Z" fill="#C4C9E9"/>
<path d="M20.8656 29.9728C23.6286 29.8026 26.2182 29.7003 28.806 29.7342C29.3912 29.7419 29.9701 30.2234 30.552 30.4868C30.2368 30.9275 29.986 31.4386 29.5948 31.796C28.2553 33.0194 28.2606 36.7731 29.6023 37.9992C29.9928 38.3561 30.239 38.8709 30.5514 39.3133C30.0534 39.5714 29.5618 40.0367 29.0563 40.0523C26.6376 40.1271 24.2142 40.114 21.795 40.0449C21.3645 40.0326 20.745 39.6985 20.5863 39.3453C20.4637 39.0723 20.8286 38.4355 21.1434 38.1348C22.9639 36.3959 22.9029 33.3585 21.0543 31.5933C20.7408 31.2939 20.803 30.6011 20.8656 29.9728ZM25.3155 31.9384C25.0905 33.7036 24.8355 35.4662 24.6876 37.2378C24.6729 37.4137 25.2976 37.7616 25.6534 37.8061C25.8752 37.8339 26.381 37.4199 26.3644 37.2406C26.2004 35.4691 25.9537 33.7053 25.3155 31.9384Z" fill="#9FA8DA"/>
<path d="M25.5229 31.9388C25.9536 33.7053 26.2003 35.4691 26.3644 37.2406C26.381 37.4199 25.8752 37.8339 25.6534 37.8061C25.2975 37.7616 24.6728 37.4137 24.6875 37.2378C24.8354 35.4662 25.0905 33.7036 25.5229 31.9388Z" fill="#C5CAE9"/>
</g>
<defs>
<clipPath id="clip0_72_732">
<rect width="50" height="50" fill="white"/>
</clipPath>
</defs>
</svg>
