<svg width="25" height="25" viewBox="0 0 25 25" fill="none" xmlns="http://www.w3.org/2000/svg">
<path d="M12.5 11.3282C12.7318 11.3282 12.9583 11.3969 13.1511 11.5257C13.3438 11.6544 13.494 11.8374 13.5827 12.0516C13.6714 12.2657 13.6946 12.5013 13.6494 12.7287C13.6041 12.956 13.4925 13.1648 13.3286 13.3287C13.1648 13.4926 12.9559 13.6042 12.7286 13.6494C12.5013 13.6946 12.2657 13.6714 12.0515 13.5827C11.8374 13.494 11.6544 13.3438 11.5256 13.1511C11.3969 12.9584 11.3281 12.7318 11.3281 12.5C11.3281 12.1892 11.4516 11.8912 11.6714 11.6714C11.8911 11.4516 12.1892 11.3282 12.5 11.3282ZM11.3281 5.85941C11.3281 6.09118 11.3969 6.31775 11.5256 6.51046C11.6544 6.70318 11.8374 6.85338 12.0515 6.94208C12.2657 7.03077 12.5013 7.05398 12.7286 7.00876C12.9559 6.96355 13.1648 6.85194 13.3286 6.68805C13.4925 6.52416 13.6041 6.31535 13.6494 6.08803C13.6946 5.86071 13.6714 5.62508 13.5827 5.41095C13.494 5.19682 13.3438 5.01379 13.1511 4.88503C12.9583 4.75626 12.7318 4.68753 12.5 4.68753C12.1892 4.68753 11.8911 4.811 11.6714 5.03077C11.4516 5.25053 11.3281 5.5486 11.3281 5.85941ZM11.3281 19.1407C11.3281 19.3724 11.3969 19.599 11.5256 19.7917C11.6544 19.9844 11.8374 20.1346 12.0515 20.2233C12.2657 20.312 12.5013 20.3352 12.7286 20.29C12.9559 20.2448 13.1648 20.1332 13.3286 19.9693C13.4925 19.8054 13.6041 19.5966 13.6494 19.3693C13.6946 19.142 13.6714 18.9063 13.5827 18.6922C13.494 18.4781 13.3438 18.295 13.1511 18.1663C12.9583 18.0375 12.7318 17.9688 12.5 17.9688C12.1892 17.9688 11.8911 18.0922 11.6714 18.312C11.4516 18.5318 11.3281 18.8299 11.3281 19.1407Z" fill="#545454"/>
</svg>
