<svg width="60" height="60" viewBox="0 0 60 60" fill="none" xmlns="http://www.w3.org/2000/svg">
<path d="M26.5698 8.88273C29.9692 6.99755 34.2935 8.23617 36.1931 11.6052L54.3651 43.143C54.765 44.0844 54.94 44.8499 54.99 45.6451C55.0899 47.503 54.4401 49.3089 53.1653 50.6986C51.8905 52.0834 50.1658 52.9009 48.2911 53H11.6973C10.9224 52.9529 10.1475 52.7771 9.42264 52.5046C5.79825 51.043 4.04855 46.9307 5.5233 43.366L23.8202 11.5829C24.4451 10.4657 25.395 9.50205 26.5698 8.88273ZM29.9942 38.6815C28.7944 38.6815 27.7945 39.6724 27.7945 40.864C27.7945 42.0506 28.7944 43.0439 29.9942 43.0439C31.194 43.0439 32.1688 42.0506 32.1688 40.8367C32.1688 39.6501 31.194 38.6815 29.9942 38.6815ZM29.9942 23.226C28.7944 23.226 27.7945 24.1896 27.7945 25.3812V32.3893C27.7945 33.5784 28.7944 34.5718 29.9942 34.5718C31.194 34.5718 32.1688 33.5784 32.1688 32.3893V25.3812C32.1688 24.1896 31.194 23.226 29.9942 23.226Z" fill="#EAAF03"/>
</svg>
